PathFileType	4	(X/Y/Z)	s04c0103.trc
DataRate	CameraRate	NumFrames	NumMarkers	Units	OrigDataRate	OrigDataStartFrame	OrigNumFrames
200	200	6	50	mm	200	1250	2000
Frame#	Time	racr			lacr			c7			jug			rlel			rdr			llel			ldr			s2			lic			ric			lasi			rasi			rpsi			lpsi			rgt			lgt			rth1			rth2			rth3			rth4			rlfc			rmfc			rsh1			rsh2			rsh3			rsh4			rlmal			rmmal			rcal			rtoe			rmt5			lth1			lth2			lth4			lth3			llfc			lmfc			lsh1			lsh2			lsh3			lsh4			llmal			lmmal			lcal			ltoe			lmt5			SBIKE			LBIKE			RBIKE			
		X1	Y1	Z1	X2	Y2	Z2	X3	Y3	Z3	X4	Y4	Z4	X5	Y5	Z5	X6	Y6	Z6	X7	Y7	Z7	X8	Y8	Z8	X9	Y9	Z9	X10	Y10	Z10	X11	Y11	Z11	X12	Y12	Z12	X13	Y13	Z13	X14	Y14	Z14	X15	Y15	Z15	X16	Y16	Z16	X17	Y17	Z17	X18	Y18	Z18	X19	Y19	Z19	X20	Y20	Z20	X21	Y21	Z21	X22	Y22	Z22	X23	Y23	Z23	X24	Y24	Z24	X25	Y25	Z25	X26	Y26	Z26	X27	Y27	Z27	X28	Y28	Z28	X29	Y29	Z29	X30	Y30	Z30	X31	Y31	Z31	X32	Y32	Z32	X33	Y33	Z33	X34	Y34	Z34	X35	Y35	Z35	X36	Y36	Z36	X37	Y37	Z37	X38	Y38	Z38	X39	Y39	Z39	X40	Y40	Z40	X41	Y41	Z41	X42	Y42	Z42	X43	Y43	Z43	X44	Y44	Z44	X45	Y45	Z45	X46	Y46	Z46	X47	Y47	Z47	X48	Y48	Z48	X49	Y49	Z49	X50	Y50	Z50	
1250	6.2500	494.963684	1337.909808	-129.114905	493.949916	1324.643474	-399.694952	478.792431	1392.379149	-265.048824	423.470393	1241.353941	-266.791621	469.081388	1062.058856	33.781947	686.971507	918.862540	-101.142343	467.629515	1080.156824	-566.538153	688.830948	911.288874	-488.891301	-80.004536	1157.969457	-303.463338	80.710071	1178.731851	-447.881650	55.716146	1185.299417	-126.806391	123.928000	1136.631549	-398.854904	111.755953	1148.795770	-168.084577	-60.985893	1206.485506	-257.583991	-56.173584	1206.861094	-333.309971	22.588898	1119.285047	-114.964208	57.514516	1078.738657	-476.113285	146.771390	1007.981591	-97.845560	222.900505	964.715213	-107.975824	268.505316	893.134738	-113.429254	245.431263	991.000988	-122.767897	361.885062	780.623236	-137.060444	340.212531	752.677719	-247.558905	330.034792	657.839454	-106.030384	333.065428	567.189214	-117.708570	289.903891	492.846898	-120.022372	363.541805	563.539787	-142.253290	267.266497	339.583088	-119.552627	283.304813	348.547282	-205.281212	198.404625	303.740455	-152.758574	497.966273	296.649529	-168.630676	437.345669	269.493260	-107.438855	120.935829	1016.601158	-486.104545	201.519304	985.022290	-490.218692	222.399450	1011.418857	-477.176231	257.021054	915.708456	-500.565176	354.288255	800.518917	-480.787342	387.281868	774.010527	-370.087807	284.522138	706.157280	-498.365009	236.030932	640.826736	-467.831513	156.013413	602.004783	-461.592674	256.494655	625.629999	-438.511617	43.779627	512.723342	-447.291970	43.795631	518.815558	-359.291832	-32.734619	544.427127	-403.051290	192.863237	341.182341	-414.586386	113.534004	358.925608	-473.765384	-185.129322	930.122784	-286.768214	-17.470552	79.052190	-485.585971	-17.506988	79.174563	-84.860918	
1251	6.2550	496.426248	1339.162935	-129.946553	493.889574	1326.511827	-400.618225	479.652784	1393.603280	-266.085521	424.125683	1242.648684	-267.414690	471.341741	1064.002512	34.331919	687.641206	919.051497	-101.252166	467.999236	1081.209301	-566.047676	689.290611	911.689140	-488.632130	-79.636044	1159.656187	-302.228535	80.392585	1180.893443	-446.809987	57.156201	1185.983624	-125.978024	123.804255	1138.853826	-398.146012	112.715692	1149.292186	-167.223332	-59.848331	1207.863029	-256.440354	-55.690298	1208.381886	-330.149153	23.274518	1119.726670	-114.192732	57.650355	1082.364081	-475.663072	145.536897	1006.245520	-96.033673	220.370569	960.502959	-107.041128	264.289586	887.833894	-112.073465	243.569964	986.344463	-121.391485	354.962236	773.528748	-135.281733	333.642353	745.403462	-245.608850	323.906493	650.359257	-103.994347	327.674926	559.693512	-115.809228	285.240280	484.996642	-118.016149	358.314862	556.272409	-140.272688	264.376936	331.359120	-117.650597	280.085717	340.300949	-203.437967	195.583644	296.328721	-150.312105	494.905040	285.472735	-169.115720	434.581101	259.035177	-107.460327	121.854643	1021.166251	-485.233196	202.899621	991.023362	-489.806556	223.421657	1017.705688	-476.587239	259.622227	922.828394	-500.965266	358.882939	808.658152	-481.769126	389.517650	781.315906	-371.815356	288.843865	714.730932	-499.535720	240.017812	649.717343	-468.765675	159.740968	611.236511	-462.235934	260.300472	634.339413	-439.280443	47.402134	522.472152	-447.944960	47.244302	528.821909	-359.760302	-29.563333	554.238868	-403.426418	196.824024	351.715639	-414.542895	117.439824	369.025442	-473.773614	-185.044359	930.200151	-286.597238	-17.469828	79.141942	-485.564968	-17.485460	79.180095	-84.840927	
1252	6.2600	497.927024	1340.474813	-130.821097	493.820552	1328.606973	-401.469663	480.406553	1394.957680	-267.357346	424.946168	1243.975123	-268.286576	473.749612	1066.152051	34.905492	688.428620	919.253765	-101.215926	468.454336	1082.391058	-565.074361	689.838927	912.130053	-488.377683	-78.584724	1161.082450	-300.800216	80.108890	1183.122361	-445.797098	58.241998	1186.649523	-124.903767	123.626071	1141.116680	-397.315160	113.667699	1149.795167	-166.263983	-58.518763	1208.652484	-255.082431	-55.455194	1208.316930	-326.774042	23.798649	1120.031408	-113.470049	57.873550	1086.381056	-475.334859	143.758654	1003.709223	-94.694438	217.520308	956.301609	-105.839453	259.446070	882.395402	-110.663993	241.420450	981.608538	-119.950860	347.581061	766.349278	-133.049591	325.928666	737.850837	-243.930759	317.118701	642.796914	-101.912315	321.600743	552.242935	-113.694554	279.858118	477.142902	-115.819234	352.318059	549.097908	-138.052266	260.894926	323.106573	-115.665450	276.549338	332.192531	-201.432784	192.014630	288.790546	-148.066436	491.175559	274.720166	-169.052407	431.090252	248.564761	-107.229613	122.797073	1026.141147	-484.674926	204.313542	997.361396	-489.504713	224.396511	1024.270883	-476.031405	262.124733	930.300469	-501.418156	363.571223	817.396477	-482.616771	390.270727	788.874710	-374.602628	293.449245	723.566231	-500.502393	244.396988	658.585852	-469.522555	164.065766	620.469144	-462.943623	264.690411	643.434250	-440.100366	51.244391	532.100456	-448.076299	51.885710	538.793884	-360.529971	-25.590137	563.779934	-403.945958	201.347471	362.326270	-415.193200	121.987413	378.964290	-473.859722	-184.993463	930.264508	-286.454219	-17.459783	79.188836	-485.535663	-17.478348	79.224746	-84.820750	
1253	6.2650	499.420223	1341.824920	-131.748618	493.888664	1330.826068	-402.417732	481.063354	1396.492633	-268.737550	425.979008	1245.370849	-269.435132	476.421904	1068.438711	35.563586	689.164474	919.297031	-101.211946	468.988040	1083.631274	-563.819862	690.335937	912.773119	-487.808978	-78.789322	1162.596482	-299.908869	79.695335	1185.461742	-444.639489	59.314525	1187.398452	-123.809657	123.387672	1143.485170	-396.590161	114.614304	1150.182675	-165.440678	-57.833491	1209.893612	-253.577955	-54.553151	1211.284900	-326.395324	24.262757	1120.243700	-112.804797	58.131179	1090.664114	-475.072686	141.912774	1001.634058	-93.613810	214.347450	952.051235	-104.506872	254.309852	877.147600	-109.016784	238.951115	976.929305	-118.310777	339.905902	758.953257	-131.322354	317.892876	730.237225	-242.067067	309.845337	635.304316	-99.708787	315.082455	544.787330	-111.476920	273.871267	469.309975	-113.829277	345.854693	541.859597	-135.761193	256.785931	314.831697	-113.852536	272.377860	324.569011	-199.611644	187.706001	281.310443	-146.310065	486.773711	264.331868	-169.017733	426.546395	238.347296	-107.344304	123.722995	1031.378059	-484.349299	205.674169	1004.026116	-489.237268	225.305159	1031.142672	-475.579182	264.637154	938.072190	-501.982894	367.880501	826.233546	-483.101180	395.131599	797.911085	-375.339900	298.484762	732.485607	-501.457697	249.336617	667.659178	-470.262594	168.876083	629.604157	-463.534914	269.553384	652.570172	-440.778549	55.968530	541.516318	-448.456327	55.631689	548.446816	-360.854698	-20.818190	573.310236	-404.676389	206.607294	372.050723	-414.631591	127.211347	388.615645	-473.903818	-184.965176	930.337664	-286.264950	-17.432827	79.243616	-485.506561	-17.449730	79.229246	-84.787869	
1254	6.2700	500.877839	1343.198513	-132.663452	493.948685	1333.104834	-403.294519	481.562908	1398.146317	-270.111942	427.113736	1246.793564	-270.692124	479.191096	1070.730595	36.256242	689.880200	919.219105	-101.301817	469.518859	1084.950766	-562.461430	690.727401	913.462434	-487.432490	-78.669552	1164.703218	-298.877065	79.238536	1187.799995	-443.611435	60.455340	1188.080724	-122.743373	123.193720	1145.835749	-395.980934	115.622845	1150.660091	-164.639916	-57.445094	1211.552153	-251.942025	-53.621714	1214.344190	-327.526518	24.682744	1120.434421	-112.164301	58.482217	1095.180489	-474.953102	139.949412	999.633568	-92.267079	210.850518	947.644705	-102.998874	248.234157	871.603148	-108.021687	236.045577	971.647688	-117.114169	331.974350	751.394402	-129.544502	309.555194	723.031453	-239.875560	302.155708	627.839532	-97.438337	308.002649	537.414982	-109.400017	267.474471	461.611910	-112.102925	338.831889	534.691866	-133.545751	251.679222	306.672362	-112.150991	267.424182	316.671474	-197.983792	182.835873	273.984767	-144.475831	481.611707	254.058720	-169.744637	421.564652	228.907090	-107.232068	124.601348	1036.833633	-484.130281	206.966878	1010.787321	-489.152728	226.191478	1038.161817	-475.280339	267.031948	946.026225	-502.451987	372.729416	835.631383	-484.019557	400.085338	807.355454	-376.160961	303.848029	741.602063	-502.263000	254.721045	676.871729	-470.897628	174.222850	638.736740	-464.116295	274.939445	661.928089	-441.337720	61.286682	550.662540	-448.767079	60.778174	557.634448	-361.372676	-15.763947	582.076331	-404.750548	212.246223	381.545095	-414.411857	133.007868	397.848648	-473.906031	-184.877149	930.396993	-286.110064	-17.406159	79.315508	-485.480397	-17.420881	79.233614	-84.756307	
1255	6.2750	502.177242	1344.600578	-133.603341	494.104426	1335.322270	-404.202410	481.948384	1399.763046	-271.429238	428.349817	1248.106354	-271.944511	482.051983	1073.069074	36.928037	690.546266	919.123421	-101.477842	470.132419	1086.364294	-561.227223	691.124265	914.229580	-486.886857	-78.733584	1166.856865	-296.550271	78.724675	1190.545995	-442.699303	61.686657	1188.862560	-121.744144	122.932338	1148.459695	-395.477065	116.637910	1151.188344	-163.862346	-56.494761	1213.156906	-250.539347	-53.129019	1216.792158	-326.063551	25.016114	1120.514426	-111.578199	58.886096	1099.683337	-474.859032	137.641499	997.169325	-91.535234	207.134175	943.375468	-101.525419	242.315534	866.235455	-106.393993	233.085368	966.708862	-115.224554	323.496671	744.047955	-127.607000	300.757382	716.247944	-237.573206	294.141141	620.441066	-95.361029	300.638057	530.190550	-107.534828	260.518838	453.967626	-110.544252	331.385370	527.730747	-131.584482	245.720300	298.949502	-110.653196	261.572433	309.165891	-196.602621	177.213564	266.893424	-142.776583	475.769910	244.553181	-169.904996	415.892674	219.667771	-107.144459	126.089978	1042.826276	-484.742508	208.228146	1017.733412	-489.190204	226.948458	1045.353863	-475.150748	269.422739	954.169544	-502.901824	377.561450	845.416558	-484.828137	405.168102	817.208310	-376.601454	309.467027	750.846517	-502.954049	260.480735	686.084044	-471.418317	180.104572	647.847464	-464.629967	280.670230	671.383663	-441.860462	67.530234	559.605360	-449.362415	66.583729	566.643915	-361.481402	-9.824306	590.769735	-404.965606	218.863846	390.380610	-413.758498	139.351942	406.874748	-473.973715	-184.816673	930.480870	-286.058913	-17.393810	79.380146	-485.445016	-17.409906	79.250389	-84.742196	
